<?xml version="1.0" encoding="UTF-8" standalone="no"?>
<!DOCTYPE svg PUBLIC "-//W3C//DTD SVG 1.1//EN"
 "http://www.w3.org/Graphics/SVG/1.1/DTD/svg11.dtd">
<!-- Generated by graphviz version 2.43.0 (0)
 -->
<!-- Title: G Pages: 1 -->
<svg width="1680pt" height="476pt"
 viewBox="0.00 0.00 1679.64 476.00" xmlns="http://www.w3.org/2000/svg" xmlns:xlink="http://www.w3.org/1999/xlink">
<g id="graph0" class="graph" transform="scale(1 1) rotate(0) translate(4 472)">
<title>G</title>
<polygon fill="white" stroke="transparent" points="-4,4 -4,-472 1675.64,-472 1675.64,4 -4,4"/>
<!-- node0 -->
<g id="node1" class="node">
<title>node0</title>
<ellipse fill="none" stroke="black" cx="874.64" cy="-450" rx="50.89" ry="18"/>
<text text-anchor="middle" x="874.64" y="-446.3" font-family="Times,serif" font-size="14.00">program</text>
</g>
<!-- node1 -->
<g id="node2" class="node">
<title>node1</title>
<ellipse fill="none" stroke="black" cx="558.64" cy="-378" rx="27" ry="18"/>
<text text-anchor="middle" x="558.64" y="-374.3" font-family="Times,serif" font-size="14.00">dcl</text>
</g>
<!-- node0&#45;&gt;node1 -->
<g id="edge1" class="edge">
<title>node0&#45;&gt;node1</title>
<path fill="none" stroke="black" d="M832.68,-439.7C769.81,-425.78 652.29,-399.74 593.71,-386.77"/>
<polygon fill="black" stroke="black" points="594.34,-383.32 583.82,-384.58 592.83,-390.16 594.34,-383.32"/>
</g>
<!-- node12 -->
<g id="node13" class="node">
<title>node12</title>
<ellipse fill="none" stroke="black" cx="716.64" cy="-378" rx="27" ry="18"/>
<text text-anchor="middle" x="716.64" y="-374.3" font-family="Times,serif" font-size="14.00">dcl</text>
</g>
<!-- node0&#45;&gt;node12 -->
<g id="edge12" class="edge">
<title>node0&#45;&gt;node12</title>
<path fill="none" stroke="black" d="M844.18,-435.5C816.59,-423.28 776.09,-405.34 748.17,-392.97"/>
<polygon fill="black" stroke="black" points="749.42,-389.69 738.86,-388.84 746.59,-396.09 749.42,-389.69"/>
</g>
<!-- node23 -->
<g id="node24" class="node">
<title>node23</title>
<ellipse fill="none" stroke="black" cx="874.64" cy="-378" rx="27" ry="18"/>
<text text-anchor="middle" x="874.64" y="-374.3" font-family="Times,serif" font-size="14.00">dcl</text>
</g>
<!-- node0&#45;&gt;node23 -->
<g id="edge23" class="edge">
<title>node0&#45;&gt;node23</title>
<path fill="none" stroke="black" d="M874.64,-431.7C874.64,-423.98 874.64,-414.71 874.64,-406.11"/>
<polygon fill="black" stroke="black" points="878.14,-406.1 874.64,-396.1 871.14,-406.1 878.14,-406.1"/>
</g>
<!-- node34 -->
<g id="node35" class="node">
<title>node34</title>
<ellipse fill="none" stroke="black" cx="1012.64" cy="-378" rx="27" ry="18"/>
<text text-anchor="middle" x="1012.64" y="-374.3" font-family="Times,serif" font-size="14.00">dcl</text>
</g>
<!-- node0&#45;&gt;node34 -->
<g id="edge34" class="edge">
<title>node0&#45;&gt;node34</title>
<path fill="none" stroke="black" d="M902.57,-434.83C925.79,-423.05 958.77,-406.33 982.57,-394.25"/>
<polygon fill="black" stroke="black" points="984.19,-397.36 991.52,-389.71 981.02,-391.12 984.19,-397.36"/>
</g>
<!-- node45 -->
<g id="node46" class="node">
<title>node45</title>
<ellipse fill="none" stroke="black" cx="1250.64" cy="-378" rx="27" ry="18"/>
<text text-anchor="middle" x="1250.64" y="-374.3" font-family="Times,serif" font-size="14.00">dcl</text>
</g>
<!-- node0&#45;&gt;node45 -->
<g id="edge45" class="edge">
<title>node0&#45;&gt;node45</title>
<path fill="none" stroke="black" d="M918.51,-440.83C993.69,-426.84 1145.72,-398.53 1214.9,-385.65"/>
<polygon fill="black" stroke="black" points="1215.69,-389.07 1224.88,-383.8 1214.41,-382.19 1215.69,-389.07"/>
</g>
<!-- node2 -->
<g id="node3" class="node">
<title>node2</title>
<ellipse fill="none" stroke="black" cx="245.64" cy="-306" rx="32.49" ry="18"/>
<text text-anchor="middle" x="245.64" y="-302.3" font-family="Times,serif" font-size="14.00">stmt</text>
</g>
<!-- node1&#45;&gt;node2 -->
<g id="edge2" class="edge">
<title>node1&#45;&gt;node2</title>
<path fill="none" stroke="black" d="M533.3,-371.33C478.87,-359.16 350.47,-330.44 285.21,-315.85"/>
<polygon fill="black" stroke="black" points="285.82,-312.4 275.3,-313.63 284.3,-319.23 285.82,-312.4"/>
</g>
<!-- node3 -->
<g id="node4" class="node">
<title>node3</title>
<ellipse fill="none" stroke="black" cx="65.64" cy="-234" rx="65.79" ry="18"/>
<text text-anchor="middle" x="65.64" y="-230.3" font-family="Times,serif" font-size="14.00">fmt.Println(</text>
</g>
<!-- node2&#45;&gt;node3 -->
<g id="edge3" class="edge">
<title>node2&#45;&gt;node3</title>
<path fill="none" stroke="black" d="M219.85,-294.97C191.6,-283.98 145.72,-266.14 111.34,-252.77"/>
<polygon fill="black" stroke="black" points="112.56,-249.49 101.97,-249.13 110.02,-256.01 112.56,-249.49"/>
</g>
<!-- node4 -->
<g id="node5" class="node">
<title>node4</title>
<ellipse fill="none" stroke="black" cx="198.64" cy="-234" rx="49.29" ry="18"/>
<text text-anchor="middle" x="198.64" y="-230.3" font-family="Times,serif" font-size="14.00">exprList</text>
</g>
<!-- node2&#45;&gt;node4 -->
<g id="edge4" class="edge">
<title>node2&#45;&gt;node4</title>
<path fill="none" stroke="black" d="M234.74,-288.76C229.01,-280.23 221.86,-269.58 215.44,-260.02"/>
<polygon fill="black" stroke="black" points="218.29,-257.98 209.81,-251.63 212.48,-261.89 218.29,-257.98"/>
</g>
<!-- node11 -->
<g id="node12" class="node">
<title>node11</title>
<ellipse fill="none" stroke="black" cx="292.64" cy="-234" rx="27" ry="18"/>
<text text-anchor="middle" x="292.64" y="-230.3" font-family="Times,serif" font-size="14.00">)</text>
</g>
<!-- node2&#45;&gt;node11 -->
<g id="edge11" class="edge">
<title>node2&#45;&gt;node11</title>
<path fill="none" stroke="black" d="M256.55,-288.76C262.44,-279.98 269.84,-268.96 276.4,-259.19"/>
<polygon fill="black" stroke="black" points="279.46,-260.92 282.13,-250.67 273.65,-257.02 279.46,-260.92"/>
</g>
<!-- node5 -->
<g id="node6" class="node">
<title>node5</title>
<ellipse fill="none" stroke="black" cx="198.64" cy="-162" rx="31.7" ry="18"/>
<text text-anchor="middle" x="198.64" y="-158.3" font-family="Times,serif" font-size="14.00">expr</text>
</g>
<!-- node4&#45;&gt;node5 -->
<g id="edge5" class="edge">
<title>node4&#45;&gt;node5</title>
<path fill="none" stroke="black" d="M198.64,-215.7C198.64,-207.98 198.64,-198.71 198.64,-190.11"/>
<polygon fill="black" stroke="black" points="202.14,-190.1 198.64,-180.1 195.14,-190.1 202.14,-190.1"/>
</g>
<!-- node6 -->
<g id="node7" class="node">
<title>node6</title>
<ellipse fill="none" stroke="black" cx="121.64" cy="-90" rx="31.7" ry="18"/>
<text text-anchor="middle" x="121.64" y="-86.3" font-family="Times,serif" font-size="14.00">expr</text>
</g>
<!-- node5&#45;&gt;node6 -->
<g id="edge6" class="edge">
<title>node5&#45;&gt;node6</title>
<path fill="none" stroke="black" d="M182.31,-146.15C171.52,-136.34 157.21,-123.33 145.19,-112.41"/>
<polygon fill="black" stroke="black" points="147.44,-109.72 137.69,-105.58 142.73,-114.9 147.44,-109.72"/>
</g>
<!-- node8 -->
<g id="node9" class="node">
<title>node8</title>
<ellipse fill="none" stroke="black" cx="198.64" cy="-90" rx="27" ry="18"/>
<text text-anchor="middle" x="198.64" y="-86.3" font-family="Times,serif" font-size="14.00">+</text>
</g>
<!-- node5&#45;&gt;node8 -->
<g id="edge8" class="edge">
<title>node5&#45;&gt;node8</title>
<path fill="none" stroke="black" d="M198.64,-143.7C198.64,-135.98 198.64,-126.71 198.64,-118.11"/>
<polygon fill="black" stroke="black" points="202.14,-118.1 198.64,-108.1 195.14,-118.1 202.14,-118.1"/>
</g>
<!-- node9 -->
<g id="node10" class="node">
<title>node9</title>
<ellipse fill="none" stroke="black" cx="275.64" cy="-90" rx="31.7" ry="18"/>
<text text-anchor="middle" x="275.64" y="-86.3" font-family="Times,serif" font-size="14.00">expr</text>
</g>
<!-- node5&#45;&gt;node9 -->
<g id="edge9" class="edge">
<title>node5&#45;&gt;node9</title>
<path fill="none" stroke="black" d="M214.97,-146.15C225.77,-136.34 240.08,-123.33 252.1,-112.41"/>
<polygon fill="black" stroke="black" points="254.56,-114.9 259.6,-105.58 249.85,-109.72 254.56,-114.9"/>
</g>
<!-- node7 -->
<g id="node8" class="node">
<title>node7</title>
<ellipse fill="none" stroke="black" cx="121.64" cy="-18" rx="27" ry="18"/>
<text text-anchor="middle" x="121.64" y="-14.3" font-family="Times,serif" font-size="14.00">10</text>
</g>
<!-- node6&#45;&gt;node7 -->
<g id="edge7" class="edge">
<title>node6&#45;&gt;node7</title>
<path fill="none" stroke="black" d="M121.64,-71.7C121.64,-63.98 121.64,-54.71 121.64,-46.11"/>
<polygon fill="black" stroke="black" points="125.14,-46.1 121.64,-36.1 118.14,-46.1 125.14,-46.1"/>
</g>
<!-- node10 -->
<g id="node11" class="node">
<title>node10</title>
<ellipse fill="none" stroke="black" cx="275.64" cy="-18" rx="27" ry="18"/>
<text text-anchor="middle" x="275.64" y="-14.3" font-family="Times,serif" font-size="14.00">2</text>
</g>
<!-- node9&#45;&gt;node10 -->
<g id="edge10" class="edge">
<title>node9&#45;&gt;node10</title>
<path fill="none" stroke="black" d="M275.64,-71.7C275.64,-63.98 275.64,-54.71 275.64,-46.11"/>
<polygon fill="black" stroke="black" points="279.14,-46.1 275.64,-36.1 272.14,-46.1 279.14,-46.1"/>
</g>
<!-- node13 -->
<g id="node14" class="node">
<title>node13</title>
<ellipse fill="none" stroke="black" cx="583.64" cy="-306" rx="32.49" ry="18"/>
<text text-anchor="middle" x="583.64" y="-302.3" font-family="Times,serif" font-size="14.00">stmt</text>
</g>
<!-- node12&#45;&gt;node13 -->
<g id="edge13" class="edge">
<title>node12&#45;&gt;node13</title>
<path fill="none" stroke="black" d="M696.15,-366.22C674.7,-354.93 640.72,-337.04 615.71,-323.88"/>
<polygon fill="black" stroke="black" points="617.09,-320.65 606.61,-319.09 613.83,-326.84 617.09,-320.65"/>
</g>
<!-- node14 -->
<g id="node15" class="node">
<title>node14</title>
<ellipse fill="none" stroke="black" cx="403.64" cy="-234" rx="65.79" ry="18"/>
<text text-anchor="middle" x="403.64" y="-230.3" font-family="Times,serif" font-size="14.00">fmt.Println(</text>
</g>
<!-- node13&#45;&gt;node14 -->
<g id="edge14" class="edge">
<title>node13&#45;&gt;node14</title>
<path fill="none" stroke="black" d="M557.85,-294.97C529.6,-283.98 483.72,-266.14 449.34,-252.77"/>
<polygon fill="black" stroke="black" points="450.56,-249.49 439.97,-249.13 448.02,-256.01 450.56,-249.49"/>
</g>
<!-- node15 -->
<g id="node16" class="node">
<title>node15</title>
<ellipse fill="none" stroke="black" cx="536.64" cy="-234" rx="49.29" ry="18"/>
<text text-anchor="middle" x="536.64" y="-230.3" font-family="Times,serif" font-size="14.00">exprList</text>
</g>
<!-- node13&#45;&gt;node15 -->
<g id="edge15" class="edge">
<title>node13&#45;&gt;node15</title>
<path fill="none" stroke="black" d="M572.74,-288.76C567.01,-280.23 559.86,-269.58 553.44,-260.02"/>
<polygon fill="black" stroke="black" points="556.29,-257.98 547.81,-251.63 550.48,-261.89 556.29,-257.98"/>
</g>
<!-- node22 -->
<g id="node23" class="node">
<title>node22</title>
<ellipse fill="none" stroke="black" cx="630.64" cy="-234" rx="27" ry="18"/>
<text text-anchor="middle" x="630.64" y="-230.3" font-family="Times,serif" font-size="14.00">)</text>
</g>
<!-- node13&#45;&gt;node22 -->
<g id="edge22" class="edge">
<title>node13&#45;&gt;node22</title>
<path fill="none" stroke="black" d="M594.55,-288.76C600.44,-279.98 607.84,-268.96 614.4,-259.19"/>
<polygon fill="black" stroke="black" points="617.46,-260.92 620.13,-250.67 611.65,-257.02 617.46,-260.92"/>
</g>
<!-- node16 -->
<g id="node17" class="node">
<title>node16</title>
<ellipse fill="none" stroke="black" cx="536.64" cy="-162" rx="31.7" ry="18"/>
<text text-anchor="middle" x="536.64" y="-158.3" font-family="Times,serif" font-size="14.00">expr</text>
</g>
<!-- node15&#45;&gt;node16 -->
<g id="edge16" class="edge">
<title>node15&#45;&gt;node16</title>
<path fill="none" stroke="black" d="M536.64,-215.7C536.64,-207.98 536.64,-198.71 536.64,-190.11"/>
<polygon fill="black" stroke="black" points="540.14,-190.1 536.64,-180.1 533.14,-190.1 540.14,-190.1"/>
</g>
<!-- node17 -->
<g id="node18" class="node">
<title>node17</title>
<ellipse fill="none" stroke="black" cx="459.64" cy="-90" rx="31.7" ry="18"/>
<text text-anchor="middle" x="459.64" y="-86.3" font-family="Times,serif" font-size="14.00">expr</text>
</g>
<!-- node16&#45;&gt;node17 -->
<g id="edge17" class="edge">
<title>node16&#45;&gt;node17</title>
<path fill="none" stroke="black" d="M520.31,-146.15C509.52,-136.34 495.21,-123.33 483.19,-112.41"/>
<polygon fill="black" stroke="black" points="485.44,-109.72 475.69,-105.58 480.73,-114.9 485.44,-109.72"/>
</g>
<!-- node19 -->
<g id="node20" class="node">
<title>node19</title>
<ellipse fill="none" stroke="black" cx="536.64" cy="-90" rx="27" ry="18"/>
<text text-anchor="middle" x="536.64" y="-86.3" font-family="Times,serif" font-size="14.00">&#45;</text>
</g>
<!-- node16&#45;&gt;node19 -->
<g id="edge19" class="edge">
<title>node16&#45;&gt;node19</title>
<path fill="none" stroke="black" d="M536.64,-143.7C536.64,-135.98 536.64,-126.71 536.64,-118.11"/>
<polygon fill="black" stroke="black" points="540.14,-118.1 536.64,-108.1 533.14,-118.1 540.14,-118.1"/>
</g>
<!-- node20 -->
<g id="node21" class="node">
<title>node20</title>
<ellipse fill="none" stroke="black" cx="613.64" cy="-90" rx="31.7" ry="18"/>
<text text-anchor="middle" x="613.64" y="-86.3" font-family="Times,serif" font-size="14.00">expr</text>
</g>
<!-- node16&#45;&gt;node20 -->
<g id="edge20" class="edge">
<title>node16&#45;&gt;node20</title>
<path fill="none" stroke="black" d="M552.97,-146.15C563.77,-136.34 578.08,-123.33 590.1,-112.41"/>
<polygon fill="black" stroke="black" points="592.56,-114.9 597.6,-105.58 587.85,-109.72 592.56,-114.9"/>
</g>
<!-- node18 -->
<g id="node19" class="node">
<title>node18</title>
<ellipse fill="none" stroke="black" cx="459.64" cy="-18" rx="27" ry="18"/>
<text text-anchor="middle" x="459.64" y="-14.3" font-family="Times,serif" font-size="14.00">10</text>
</g>
<!-- node17&#45;&gt;node18 -->
<g id="edge18" class="edge">
<title>node17&#45;&gt;node18</title>
<path fill="none" stroke="black" d="M459.64,-71.7C459.64,-63.98 459.64,-54.71 459.64,-46.11"/>
<polygon fill="black" stroke="black" points="463.14,-46.1 459.64,-36.1 456.14,-46.1 463.14,-46.1"/>
</g>
<!-- node21 -->
<g id="node22" class="node">
<title>node21</title>
<ellipse fill="none" stroke="black" cx="613.64" cy="-18" rx="27" ry="18"/>
<text text-anchor="middle" x="613.64" y="-14.3" font-family="Times,serif" font-size="14.00">2</text>
</g>
<!-- node20&#45;&gt;node21 -->
<g id="edge21" class="edge">
<title>node20&#45;&gt;node21</title>
<path fill="none" stroke="black" d="M613.64,-71.7C613.64,-63.98 613.64,-54.71 613.64,-46.11"/>
<polygon fill="black" stroke="black" points="617.14,-46.1 613.64,-36.1 610.14,-46.1 617.14,-46.1"/>
</g>
<!-- node24 -->
<g id="node25" class="node">
<title>node24</title>
<ellipse fill="none" stroke="black" cx="874.64" cy="-306" rx="32.49" ry="18"/>
<text text-anchor="middle" x="874.64" y="-302.3" font-family="Times,serif" font-size="14.00">stmt</text>
</g>
<!-- node23&#45;&gt;node24 -->
<g id="edge24" class="edge">
<title>node23&#45;&gt;node24</title>
<path fill="none" stroke="black" d="M874.64,-359.7C874.64,-351.98 874.64,-342.71 874.64,-334.11"/>
<polygon fill="black" stroke="black" points="878.14,-334.1 874.64,-324.1 871.14,-334.1 878.14,-334.1"/>
</g>
<!-- node25 -->
<g id="node26" class="node">
<title>node25</title>
<ellipse fill="none" stroke="black" cx="741.64" cy="-234" rx="65.79" ry="18"/>
<text text-anchor="middle" x="741.64" y="-230.3" font-family="Times,serif" font-size="14.00">fmt.Println(</text>
</g>
<!-- node24&#45;&gt;node25 -->
<g id="edge25" class="edge">
<title>node24&#45;&gt;node25</title>
<path fill="none" stroke="black" d="M851.78,-292.97C831.98,-282.54 802.94,-267.26 779.65,-255"/>
<polygon fill="black" stroke="black" points="781.19,-251.86 770.71,-250.3 777.93,-258.05 781.19,-251.86"/>
</g>
<!-- node26 -->
<g id="node27" class="node">
<title>node26</title>
<ellipse fill="none" stroke="black" cx="874.64" cy="-234" rx="49.29" ry="18"/>
<text text-anchor="middle" x="874.64" y="-230.3" font-family="Times,serif" font-size="14.00">exprList</text>
</g>
<!-- node24&#45;&gt;node26 -->
<g id="edge26" class="edge">
<title>node24&#45;&gt;node26</title>
<path fill="none" stroke="black" d="M874.64,-287.7C874.64,-279.98 874.64,-270.71 874.64,-262.11"/>
<polygon fill="black" stroke="black" points="878.14,-262.1 874.64,-252.1 871.14,-262.1 878.14,-262.1"/>
</g>
<!-- node33 -->
<g id="node34" class="node">
<title>node33</title>
<ellipse fill="none" stroke="black" cx="968.64" cy="-234" rx="27" ry="18"/>
<text text-anchor="middle" x="968.64" y="-230.3" font-family="Times,serif" font-size="14.00">)</text>
</g>
<!-- node24&#45;&gt;node33 -->
<g id="edge33" class="edge">
<title>node24&#45;&gt;node33</title>
<path fill="none" stroke="black" d="M893.22,-291.17C907.48,-280.55 927.34,-265.76 943.11,-254.02"/>
<polygon fill="black" stroke="black" points="945.45,-256.64 951.38,-247.86 941.27,-251.02 945.45,-256.64"/>
</g>
<!-- node27 -->
<g id="node28" class="node">
<title>node27</title>
<ellipse fill="none" stroke="black" cx="874.64" cy="-162" rx="31.7" ry="18"/>
<text text-anchor="middle" x="874.64" y="-158.3" font-family="Times,serif" font-size="14.00">expr</text>
</g>
<!-- node26&#45;&gt;node27 -->
<g id="edge27" class="edge">
<title>node26&#45;&gt;node27</title>
<path fill="none" stroke="black" d="M874.64,-215.7C874.64,-207.98 874.64,-198.71 874.64,-190.11"/>
<polygon fill="black" stroke="black" points="878.14,-190.1 874.64,-180.1 871.14,-190.1 878.14,-190.1"/>
</g>
<!-- node28 -->
<g id="node29" class="node">
<title>node28</title>
<ellipse fill="none" stroke="black" cx="797.64" cy="-90" rx="31.7" ry="18"/>
<text text-anchor="middle" x="797.64" y="-86.3" font-family="Times,serif" font-size="14.00">expr</text>
</g>
<!-- node27&#45;&gt;node28 -->
<g id="edge28" class="edge">
<title>node27&#45;&gt;node28</title>
<path fill="none" stroke="black" d="M858.31,-146.15C847.52,-136.34 833.21,-123.33 821.19,-112.41"/>
<polygon fill="black" stroke="black" points="823.44,-109.72 813.69,-105.58 818.73,-114.9 823.44,-109.72"/>
</g>
<!-- node30 -->
<g id="node31" class="node">
<title>node30</title>
<ellipse fill="none" stroke="black" cx="874.64" cy="-90" rx="27" ry="18"/>
<text text-anchor="middle" x="874.64" y="-86.3" font-family="Times,serif" font-size="14.00">*</text>
</g>
<!-- node27&#45;&gt;node30 -->
<g id="edge30" class="edge">
<title>node27&#45;&gt;node30</title>
<path fill="none" stroke="black" d="M874.64,-143.7C874.64,-135.98 874.64,-126.71 874.64,-118.11"/>
<polygon fill="black" stroke="black" points="878.14,-118.1 874.64,-108.1 871.14,-118.1 878.14,-118.1"/>
</g>
<!-- node31 -->
<g id="node32" class="node">
<title>node31</title>
<ellipse fill="none" stroke="black" cx="951.64" cy="-90" rx="31.7" ry="18"/>
<text text-anchor="middle" x="951.64" y="-86.3" font-family="Times,serif" font-size="14.00">expr</text>
</g>
<!-- node27&#45;&gt;node31 -->
<g id="edge31" class="edge">
<title>node27&#45;&gt;node31</title>
<path fill="none" stroke="black" d="M890.97,-146.15C901.77,-136.34 916.08,-123.33 928.1,-112.41"/>
<polygon fill="black" stroke="black" points="930.56,-114.9 935.6,-105.58 925.85,-109.72 930.56,-114.9"/>
</g>
<!-- node29 -->
<g id="node30" class="node">
<title>node29</title>
<ellipse fill="none" stroke="black" cx="797.64" cy="-18" rx="27" ry="18"/>
<text text-anchor="middle" x="797.64" y="-14.3" font-family="Times,serif" font-size="14.00">10</text>
</g>
<!-- node28&#45;&gt;node29 -->
<g id="edge29" class="edge">
<title>node28&#45;&gt;node29</title>
<path fill="none" stroke="black" d="M797.64,-71.7C797.64,-63.98 797.64,-54.71 797.64,-46.11"/>
<polygon fill="black" stroke="black" points="801.14,-46.1 797.64,-36.1 794.14,-46.1 801.14,-46.1"/>
</g>
<!-- node32 -->
<g id="node33" class="node">
<title>node32</title>
<ellipse fill="none" stroke="black" cx="951.64" cy="-18" rx="27" ry="18"/>
<text text-anchor="middle" x="951.64" y="-14.3" font-family="Times,serif" font-size="14.00">2</text>
</g>
<!-- node31&#45;&gt;node32 -->
<g id="edge32" class="edge">
<title>node31&#45;&gt;node32</title>
<path fill="none" stroke="black" d="M951.64,-71.7C951.64,-63.98 951.64,-54.71 951.64,-46.11"/>
<polygon fill="black" stroke="black" points="955.14,-46.1 951.64,-36.1 948.14,-46.1 955.14,-46.1"/>
</g>
<!-- node35 -->
<g id="node36" class="node">
<title>node35</title>
<ellipse fill="none" stroke="black" cx="1145.64" cy="-306" rx="32.49" ry="18"/>
<text text-anchor="middle" x="1145.64" y="-302.3" font-family="Times,serif" font-size="14.00">stmt</text>
</g>
<!-- node34&#45;&gt;node35 -->
<g id="edge35" class="edge">
<title>node34&#45;&gt;node35</title>
<path fill="none" stroke="black" d="M1033.13,-366.22C1054.59,-354.93 1088.56,-337.04 1113.57,-323.88"/>
<polygon fill="black" stroke="black" points="1115.46,-326.84 1122.67,-319.09 1112.19,-320.65 1115.46,-326.84"/>
</g>
<!-- node36 -->
<g id="node37" class="node">
<title>node36</title>
<ellipse fill="none" stroke="black" cx="1079.64" cy="-234" rx="65.79" ry="18"/>
<text text-anchor="middle" x="1079.64" y="-230.3" font-family="Times,serif" font-size="14.00">fmt.Println(</text>
</g>
<!-- node35&#45;&gt;node36 -->
<g id="edge36" class="edge">
<title>node35&#45;&gt;node36</title>
<path fill="none" stroke="black" d="M1131.32,-289.81C1122.86,-280.84 1111.96,-269.28 1102.36,-259.09"/>
<polygon fill="black" stroke="black" points="1104.73,-256.5 1095.32,-251.63 1099.64,-261.3 1104.73,-256.5"/>
</g>
<!-- node37 -->
<g id="node38" class="node">
<title>node37</title>
<ellipse fill="none" stroke="black" cx="1212.64" cy="-234" rx="49.29" ry="18"/>
<text text-anchor="middle" x="1212.64" y="-230.3" font-family="Times,serif" font-size="14.00">exprList</text>
</g>
<!-- node35&#45;&gt;node37 -->
<g id="edge37" class="edge">
<title>node35&#45;&gt;node37</title>
<path fill="none" stroke="black" d="M1160.18,-289.81C1168.89,-280.71 1180.15,-268.95 1190.01,-258.65"/>
<polygon fill="black" stroke="black" points="1192.82,-260.78 1197.2,-251.13 1187.76,-255.94 1192.82,-260.78"/>
</g>
<!-- node44 -->
<g id="node45" class="node">
<title>node44</title>
<ellipse fill="none" stroke="black" cx="1306.64" cy="-234" rx="27" ry="18"/>
<text text-anchor="middle" x="1306.64" y="-230.3" font-family="Times,serif" font-size="14.00">)</text>
</g>
<!-- node35&#45;&gt;node44 -->
<g id="edge44" class="edge">
<title>node35&#45;&gt;node44</title>
<path fill="none" stroke="black" d="M1171.15,-294.54C1196.5,-284.05 1236.44,-267.32 1270.64,-252 1272.44,-251.19 1274.29,-250.36 1276.14,-249.51"/>
<polygon fill="black" stroke="black" points="1277.8,-252.6 1285.39,-245.21 1274.85,-246.25 1277.8,-252.6"/>
</g>
<!-- node38 -->
<g id="node39" class="node">
<title>node38</title>
<ellipse fill="none" stroke="black" cx="1212.64" cy="-162" rx="31.7" ry="18"/>
<text text-anchor="middle" x="1212.64" y="-158.3" font-family="Times,serif" font-size="14.00">expr</text>
</g>
<!-- node37&#45;&gt;node38 -->
<g id="edge38" class="edge">
<title>node37&#45;&gt;node38</title>
<path fill="none" stroke="black" d="M1212.64,-215.7C1212.64,-207.98 1212.64,-198.71 1212.64,-190.11"/>
<polygon fill="black" stroke="black" points="1216.14,-190.1 1212.64,-180.1 1209.14,-190.1 1216.14,-190.1"/>
</g>
<!-- node39 -->
<g id="node40" class="node">
<title>node39</title>
<ellipse fill="none" stroke="black" cx="1135.64" cy="-90" rx="31.7" ry="18"/>
<text text-anchor="middle" x="1135.64" y="-86.3" font-family="Times,serif" font-size="14.00">expr</text>
</g>
<!-- node38&#45;&gt;node39 -->
<g id="edge39" class="edge">
<title>node38&#45;&gt;node39</title>
<path fill="none" stroke="black" d="M1196.31,-146.15C1185.52,-136.34 1171.21,-123.33 1159.19,-112.41"/>
<polygon fill="black" stroke="black" points="1161.44,-109.72 1151.69,-105.58 1156.73,-114.9 1161.44,-109.72"/>
</g>
<!-- node41 -->
<g id="node42" class="node">
<title>node41</title>
<ellipse fill="none" stroke="black" cx="1212.64" cy="-90" rx="27" ry="18"/>
<text text-anchor="middle" x="1212.64" y="-86.3" font-family="Times,serif" font-size="14.00">/</text>
</g>
<!-- node38&#45;&gt;node41 -->
<g id="edge41" class="edge">
<title>node38&#45;&gt;node41</title>
<path fill="none" stroke="black" d="M1212.64,-143.7C1212.64,-135.98 1212.64,-126.71 1212.64,-118.11"/>
<polygon fill="black" stroke="black" points="1216.14,-118.1 1212.64,-108.1 1209.14,-118.1 1216.14,-118.1"/>
</g>
<!-- node42 -->
<g id="node43" class="node">
<title>node42</title>
<ellipse fill="none" stroke="black" cx="1289.64" cy="-90" rx="31.7" ry="18"/>
<text text-anchor="middle" x="1289.64" y="-86.3" font-family="Times,serif" font-size="14.00">expr</text>
</g>
<!-- node38&#45;&gt;node42 -->
<g id="edge42" class="edge">
<title>node38&#45;&gt;node42</title>
<path fill="none" stroke="black" d="M1228.97,-146.15C1239.77,-136.34 1254.08,-123.33 1266.1,-112.41"/>
<polygon fill="black" stroke="black" points="1268.56,-114.9 1273.6,-105.58 1263.85,-109.72 1268.56,-114.9"/>
</g>
<!-- node40 -->
<g id="node41" class="node">
<title>node40</title>
<ellipse fill="none" stroke="black" cx="1135.64" cy="-18" rx="27" ry="18"/>
<text text-anchor="middle" x="1135.64" y="-14.3" font-family="Times,serif" font-size="14.00">10</text>
</g>
<!-- node39&#45;&gt;node40 -->
<g id="edge40" class="edge">
<title>node39&#45;&gt;node40</title>
<path fill="none" stroke="black" d="M1135.64,-71.7C1135.64,-63.98 1135.64,-54.71 1135.64,-46.11"/>
<polygon fill="black" stroke="black" points="1139.14,-46.1 1135.64,-36.1 1132.14,-46.1 1139.14,-46.1"/>
</g>
<!-- node43 -->
<g id="node44" class="node">
<title>node43</title>
<ellipse fill="none" stroke="black" cx="1289.64" cy="-18" rx="27" ry="18"/>
<text text-anchor="middle" x="1289.64" y="-14.3" font-family="Times,serif" font-size="14.00">2</text>
</g>
<!-- node42&#45;&gt;node43 -->
<g id="edge43" class="edge">
<title>node42&#45;&gt;node43</title>
<path fill="none" stroke="black" d="M1289.64,-71.7C1289.64,-63.98 1289.64,-54.71 1289.64,-46.11"/>
<polygon fill="black" stroke="black" points="1293.14,-46.1 1289.64,-36.1 1286.14,-46.1 1293.14,-46.1"/>
</g>
<!-- node46 -->
<g id="node47" class="node">
<title>node46</title>
<ellipse fill="none" stroke="black" cx="1483.64" cy="-306" rx="32.49" ry="18"/>
<text text-anchor="middle" x="1483.64" y="-302.3" font-family="Times,serif" font-size="14.00">stmt</text>
</g>
<!-- node45&#45;&gt;node46 -->
<g id="edge46" class="edge">
<title>node45&#45;&gt;node46</title>
<path fill="none" stroke="black" d="M1274.7,-369.77C1315.3,-357.58 1397.7,-332.82 1446,-318.31"/>
<polygon fill="black" stroke="black" points="1447.2,-321.6 1455.77,-315.38 1445.18,-314.9 1447.2,-321.6"/>
</g>
<!-- node47 -->
<g id="node48" class="node">
<title>node47</title>
<ellipse fill="none" stroke="black" cx="1417.64" cy="-234" rx="65.79" ry="18"/>
<text text-anchor="middle" x="1417.64" y="-230.3" font-family="Times,serif" font-size="14.00">fmt.Println(</text>
</g>
<!-- node46&#45;&gt;node47 -->
<g id="edge47" class="edge">
<title>node46&#45;&gt;node47</title>
<path fill="none" stroke="black" d="M1469.32,-289.81C1460.86,-280.84 1449.96,-269.28 1440.36,-259.09"/>
<polygon fill="black" stroke="black" points="1442.73,-256.5 1433.32,-251.63 1437.64,-261.3 1442.73,-256.5"/>
</g>
<!-- node48 -->
<g id="node49" class="node">
<title>node48</title>
<ellipse fill="none" stroke="black" cx="1550.64" cy="-234" rx="49.29" ry="18"/>
<text text-anchor="middle" x="1550.64" y="-230.3" font-family="Times,serif" font-size="14.00">exprList</text>
</g>
<!-- node46&#45;&gt;node48 -->
<g id="edge48" class="edge">
<title>node46&#45;&gt;node48</title>
<path fill="none" stroke="black" d="M1498.18,-289.81C1506.89,-280.71 1518.15,-268.95 1528.01,-258.65"/>
<polygon fill="black" stroke="black" points="1530.82,-260.78 1535.2,-251.13 1525.76,-255.94 1530.82,-260.78"/>
</g>
<!-- node55 -->
<g id="node56" class="node">
<title>node55</title>
<ellipse fill="none" stroke="black" cx="1644.64" cy="-234" rx="27" ry="18"/>
<text text-anchor="middle" x="1644.64" y="-230.3" font-family="Times,serif" font-size="14.00">)</text>
</g>
<!-- node46&#45;&gt;node55 -->
<g id="edge55" class="edge">
<title>node46&#45;&gt;node55</title>
<path fill="none" stroke="black" d="M1509.15,-294.54C1534.5,-284.05 1574.44,-267.32 1608.64,-252 1610.44,-251.19 1612.29,-250.36 1614.14,-249.51"/>
<polygon fill="black" stroke="black" points="1615.8,-252.6 1623.39,-245.21 1612.85,-246.25 1615.8,-252.6"/>
</g>
<!-- node49 -->
<g id="node50" class="node">
<title>node49</title>
<ellipse fill="none" stroke="black" cx="1550.64" cy="-162" rx="31.7" ry="18"/>
<text text-anchor="middle" x="1550.64" y="-158.3" font-family="Times,serif" font-size="14.00">expr</text>
</g>
<!-- node48&#45;&gt;node49 -->
<g id="edge49" class="edge">
<title>node48&#45;&gt;node49</title>
<path fill="none" stroke="black" d="M1550.64,-215.7C1550.64,-207.98 1550.64,-198.71 1550.64,-190.11"/>
<polygon fill="black" stroke="black" points="1554.14,-190.1 1550.64,-180.1 1547.14,-190.1 1554.14,-190.1"/>
</g>
<!-- node50 -->
<g id="node51" class="node">
<title>node50</title>
<ellipse fill="none" stroke="black" cx="1473.64" cy="-90" rx="31.7" ry="18"/>
<text text-anchor="middle" x="1473.64" y="-86.3" font-family="Times,serif" font-size="14.00">expr</text>
</g>
<!-- node49&#45;&gt;node50 -->
<g id="edge50" class="edge">
<title>node49&#45;&gt;node50</title>
<path fill="none" stroke="black" d="M1534.31,-146.15C1523.52,-136.34 1509.21,-123.33 1497.19,-112.41"/>
<polygon fill="black" stroke="black" points="1499.44,-109.72 1489.69,-105.58 1494.73,-114.9 1499.44,-109.72"/>
</g>
<!-- node52 -->
<g id="node53" class="node">
<title>node52</title>
<ellipse fill="none" stroke="black" cx="1550.64" cy="-90" rx="27" ry="18"/>
<text text-anchor="middle" x="1550.64" y="-86.3" font-family="Times,serif" font-size="14.00">%</text>
</g>
<!-- node49&#45;&gt;node52 -->
<g id="edge52" class="edge">
<title>node49&#45;&gt;node52</title>
<path fill="none" stroke="black" d="M1550.64,-143.7C1550.64,-135.98 1550.64,-126.71 1550.64,-118.11"/>
<polygon fill="black" stroke="black" points="1554.14,-118.1 1550.64,-108.1 1547.14,-118.1 1554.14,-118.1"/>
</g>
<!-- node53 -->
<g id="node54" class="node">
<title>node53</title>
<ellipse fill="none" stroke="black" cx="1627.64" cy="-90" rx="31.7" ry="18"/>
<text text-anchor="middle" x="1627.64" y="-86.3" font-family="Times,serif" font-size="14.00">expr</text>
</g>
<!-- node49&#45;&gt;node53 -->
<g id="edge53" class="edge">
<title>node49&#45;&gt;node53</title>
<path fill="none" stroke="black" d="M1566.97,-146.15C1577.77,-136.34 1592.08,-123.33 1604.1,-112.41"/>
<polygon fill="black" stroke="black" points="1606.56,-114.9 1611.6,-105.58 1601.85,-109.72 1606.56,-114.9"/>
</g>
<!-- node51 -->
<g id="node52" class="node">
<title>node51</title>
<ellipse fill="none" stroke="black" cx="1473.64" cy="-18" rx="27" ry="18"/>
<text text-anchor="middle" x="1473.64" y="-14.3" font-family="Times,serif" font-size="14.00">10</text>
</g>
<!-- node50&#45;&gt;node51 -->
<g id="edge51" class="edge">
<title>node50&#45;&gt;node51</title>
<path fill="none" stroke="black" d="M1473.64,-71.7C1473.64,-63.98 1473.64,-54.71 1473.64,-46.11"/>
<polygon fill="black" stroke="black" points="1477.14,-46.1 1473.64,-36.1 1470.14,-46.1 1477.14,-46.1"/>
</g>
<!-- node54 -->
<g id="node55" class="node">
<title>node54</title>
<ellipse fill="none" stroke="black" cx="1627.64" cy="-18" rx="27" ry="18"/>
<text text-anchor="middle" x="1627.64" y="-14.3" font-family="Times,serif" font-size="14.00">2</text>
</g>
<!-- node53&#45;&gt;node54 -->
<g id="edge54" class="edge">
<title>node53&#45;&gt;node54</title>
<path fill="none" stroke="black" d="M1627.64,-71.7C1627.64,-63.98 1627.64,-54.71 1627.64,-46.11"/>
<polygon fill="black" stroke="black" points="1631.14,-46.1 1627.64,-36.1 1624.14,-46.1 1631.14,-46.1"/>
</g>
</g>
</svg>
