<?xml version="1.0" encoding="UTF-8" standalone="no"?>
<!DOCTYPE svg PUBLIC "-//W3C//DTD SVG 1.1//EN"
 "http://www.w3.org/Graphics/SVG/1.1/DTD/svg11.dtd">
<!-- Generated by graphviz version 2.43.0 (0)
 -->
<!-- Title: G Pages: 1 -->
<svg width="2206pt" height="404pt"
 viewBox="0.00 0.00 2206.13 404.00" xmlns="http://www.w3.org/2000/svg" xmlns:xlink="http://www.w3.org/1999/xlink">
<g id="graph0" class="graph" transform="scale(1 1) rotate(0) translate(4 400)">
<title>G</title>
<polygon fill="white" stroke="transparent" points="-4,4 -4,-400 2202.13,-400 2202.13,4 -4,4"/>
<!-- node0 -->
<g id="node1" class="node">
<title>node0</title>
<ellipse fill="none" stroke="black" cx="1070.13" cy="-378" rx="50.89" ry="18"/>
<text text-anchor="middle" x="1070.13" y="-374.3" font-family="Times,serif" font-size="14.00">program</text>
</g>
<!-- node1 -->
<g id="node2" class="node">
<title>node1</title>
<ellipse fill="none" stroke="black" cx="627.13" cy="-306" rx="27" ry="18"/>
<text text-anchor="middle" x="627.13" y="-302.3" font-family="Times,serif" font-size="14.00">dcl</text>
</g>
<!-- node0&#45;&gt;node1 -->
<g id="edge1" class="edge">
<title>node0&#45;&gt;node1</title>
<path fill="none" stroke="black" d="M1024.81,-369.84C936.59,-355.9 743.46,-325.38 663.21,-312.7"/>
<polygon fill="black" stroke="black" points="663.53,-309.21 653.1,-311.1 662.43,-316.12 663.53,-309.21"/>
</g>
<!-- node8 -->
<g id="node9" class="node">
<title>node8</title>
<ellipse fill="none" stroke="black" cx="785.13" cy="-306" rx="27" ry="18"/>
<text text-anchor="middle" x="785.13" y="-302.3" font-family="Times,serif" font-size="14.00">dcl</text>
</g>
<!-- node0&#45;&gt;node8 -->
<g id="edge8" class="edge">
<title>node0&#45;&gt;node8</title>
<path fill="none" stroke="black" d="M1029.6,-367.05C973.41,-353.24 872.81,-328.53 819.87,-315.53"/>
<polygon fill="black" stroke="black" points="820.5,-312.08 809.95,-313.1 818.83,-318.88 820.5,-312.08"/>
</g>
<!-- node15 -->
<g id="node16" class="node">
<title>node15</title>
<ellipse fill="none" stroke="black" cx="1034.13" cy="-306" rx="27" ry="18"/>
<text text-anchor="middle" x="1034.13" y="-302.3" font-family="Times,serif" font-size="14.00">dcl</text>
</g>
<!-- node0&#45;&gt;node15 -->
<g id="edge15" class="edge">
<title>node0&#45;&gt;node15</title>
<path fill="none" stroke="black" d="M1061.42,-360.05C1057.15,-351.77 1051.94,-341.62 1047.21,-332.42"/>
<polygon fill="black" stroke="black" points="1050.2,-330.6 1042.52,-323.31 1043.98,-333.8 1050.2,-330.6"/>
</g>
<!-- node24 -->
<g id="node25" class="node">
<title>node24</title>
<ellipse fill="none" stroke="black" cx="1224.13" cy="-306" rx="27" ry="18"/>
<text text-anchor="middle" x="1224.13" y="-302.3" font-family="Times,serif" font-size="14.00">dcl</text>
</g>
<!-- node0&#45;&gt;node24 -->
<g id="edge24" class="edge">
<title>node0&#45;&gt;node24</title>
<path fill="none" stroke="black" d="M1100.19,-363.34C1126.85,-351.22 1165.66,-333.58 1192.72,-321.28"/>
<polygon fill="black" stroke="black" points="1194.46,-324.33 1202.11,-317.01 1191.56,-317.96 1194.46,-324.33"/>
</g>
<!-- node33 -->
<g id="node34" class="node">
<title>node33</title>
<ellipse fill="none" stroke="black" cx="1495.13" cy="-306" rx="27" ry="18"/>
<text text-anchor="middle" x="1495.13" y="-302.3" font-family="Times,serif" font-size="14.00">dcl</text>
</g>
<!-- node0&#45;&gt;node33 -->
<g id="edge33" class="edge">
<title>node0&#45;&gt;node33</title>
<path fill="none" stroke="black" d="M1115.21,-369.58C1199.99,-355.61 1381.58,-325.7 1458.98,-312.95"/>
<polygon fill="black" stroke="black" points="1459.89,-316.35 1469.19,-311.27 1458.75,-309.44 1459.89,-316.35"/>
</g>
<!-- node40 -->
<g id="node41" class="node">
<title>node40</title>
<ellipse fill="none" stroke="black" cx="1800.13" cy="-306" rx="27" ry="18"/>
<text text-anchor="middle" x="1800.13" y="-302.3" font-family="Times,serif" font-size="14.00">dcl</text>
</g>
<!-- node0&#45;&gt;node40 -->
<g id="edge40" class="edge">
<title>node0&#45;&gt;node40</title>
<path fill="none" stroke="black" d="M1118.31,-372.38C1254.83,-359.29 1642.16,-322.15 1763.39,-310.52"/>
<polygon fill="black" stroke="black" points="1764.01,-313.98 1773.63,-309.54 1763.34,-307.01 1764.01,-313.98"/>
</g>
<!-- node2 -->
<g id="node3" class="node">
<title>node2</title>
<ellipse fill="none" stroke="black" cx="294.13" cy="-234" rx="32.49" ry="18"/>
<text text-anchor="middle" x="294.13" y="-230.3" font-family="Times,serif" font-size="14.00">stmt</text>
</g>
<!-- node1&#45;&gt;node2 -->
<g id="edge2" class="edge">
<title>node1&#45;&gt;node2</title>
<path fill="none" stroke="black" d="M601.83,-299.68C544.37,-287.6 403.66,-258.02 334.23,-243.43"/>
<polygon fill="black" stroke="black" points="334.62,-239.94 324.12,-241.3 333.18,-246.79 334.62,-239.94"/>
</g>
<!-- node3 -->
<g id="node4" class="node">
<title>node3</title>
<ellipse fill="none" stroke="black" cx="114.13" cy="-162" rx="65.79" ry="18"/>
<text text-anchor="middle" x="114.13" y="-158.3" font-family="Times,serif" font-size="14.00">fmt.Println(</text>
</g>
<!-- node2&#45;&gt;node3 -->
<g id="edge3" class="edge">
<title>node2&#45;&gt;node3</title>
<path fill="none" stroke="black" d="M268.34,-222.97C240.09,-211.98 194.21,-194.14 159.83,-180.77"/>
<polygon fill="black" stroke="black" points="161.05,-177.49 150.46,-177.13 158.51,-184.01 161.05,-177.49"/>
</g>
<!-- node4 -->
<g id="node5" class="node">
<title>node4</title>
<ellipse fill="none" stroke="black" cx="247.13" cy="-162" rx="49.29" ry="18"/>
<text text-anchor="middle" x="247.13" y="-158.3" font-family="Times,serif" font-size="14.00">exprList</text>
</g>
<!-- node2&#45;&gt;node4 -->
<g id="edge4" class="edge">
<title>node2&#45;&gt;node4</title>
<path fill="none" stroke="black" d="M283.23,-216.76C277.5,-208.23 270.35,-197.58 263.93,-188.02"/>
<polygon fill="black" stroke="black" points="266.78,-185.98 258.3,-179.63 260.97,-189.89 266.78,-185.98"/>
</g>
<!-- node7 -->
<g id="node8" class="node">
<title>node7</title>
<ellipse fill="none" stroke="black" cx="341.13" cy="-162" rx="27" ry="18"/>
<text text-anchor="middle" x="341.13" y="-158.3" font-family="Times,serif" font-size="14.00">)</text>
</g>
<!-- node2&#45;&gt;node7 -->
<g id="edge7" class="edge">
<title>node2&#45;&gt;node7</title>
<path fill="none" stroke="black" d="M305.03,-216.76C310.93,-207.98 318.33,-196.96 324.89,-187.19"/>
<polygon fill="black" stroke="black" points="327.95,-188.92 330.61,-178.67 322.13,-185.02 327.95,-188.92"/>
</g>
<!-- node5 -->
<g id="node6" class="node">
<title>node5</title>
<ellipse fill="none" stroke="black" cx="238.13" cy="-90" rx="31.7" ry="18"/>
<text text-anchor="middle" x="238.13" y="-86.3" font-family="Times,serif" font-size="14.00">expr</text>
</g>
<!-- node4&#45;&gt;node5 -->
<g id="edge5" class="edge">
<title>node4&#45;&gt;node5</title>
<path fill="none" stroke="black" d="M244.91,-143.7C243.92,-135.98 242.72,-126.71 241.62,-118.11"/>
<polygon fill="black" stroke="black" points="245.08,-117.58 240.33,-108.1 238.14,-118.47 245.08,-117.58"/>
</g>
<!-- node6 -->
<g id="node7" class="node">
<title>node6</title>
<ellipse fill="none" stroke="black" cx="202.13" cy="-18" rx="202.26" ry="18"/>
<text text-anchor="middle" x="202.13" y="-14.3" font-family="Times,serif" font-size="14.00">&quot;==== Declaración de variables ====&quot;</text>
</g>
<!-- node5&#45;&gt;node6 -->
<g id="edge6" class="edge">
<title>node5&#45;&gt;node6</title>
<path fill="none" stroke="black" d="M229.6,-72.41C225.46,-64.37 220.4,-54.51 215.75,-45.47"/>
<polygon fill="black" stroke="black" points="218.79,-43.74 211.1,-36.45 212.57,-46.94 218.79,-43.74"/>
</g>
<!-- node9 -->
<g id="node10" class="node">
<title>node9</title>
<ellipse fill="none" stroke="black" cx="650.13" cy="-234" rx="32.49" ry="18"/>
<text text-anchor="middle" x="650.13" y="-230.3" font-family="Times,serif" font-size="14.00">stmt</text>
</g>
<!-- node8&#45;&gt;node9 -->
<g id="edge9" class="edge">
<title>node8&#45;&gt;node9</title>
<path fill="none" stroke="black" d="M764.33,-294.22C742.33,-282.81 707.35,-264.67 681.89,-251.47"/>
<polygon fill="black" stroke="black" points="683.48,-248.35 672.99,-246.85 680.25,-254.56 683.48,-248.35"/>
</g>
<!-- node10 -->
<g id="node11" class="node">
<title>node10</title>
<ellipse fill="none" stroke="black" cx="470.13" cy="-162" rx="65.79" ry="18"/>
<text text-anchor="middle" x="470.13" y="-158.3" font-family="Times,serif" font-size="14.00">fmt.Println(</text>
</g>
<!-- node9&#45;&gt;node10 -->
<g id="edge10" class="edge">
<title>node9&#45;&gt;node10</title>
<path fill="none" stroke="black" d="M624.34,-222.97C596.09,-211.98 550.21,-194.14 515.83,-180.77"/>
<polygon fill="black" stroke="black" points="517.05,-177.49 506.46,-177.13 514.51,-184.01 517.05,-177.49"/>
</g>
<!-- node11 -->
<g id="node12" class="node">
<title>node11</title>
<ellipse fill="none" stroke="black" cx="603.13" cy="-162" rx="49.29" ry="18"/>
<text text-anchor="middle" x="603.13" y="-158.3" font-family="Times,serif" font-size="14.00">exprList</text>
</g>
<!-- node9&#45;&gt;node11 -->
<g id="edge11" class="edge">
<title>node9&#45;&gt;node11</title>
<path fill="none" stroke="black" d="M639.23,-216.76C633.5,-208.23 626.35,-197.58 619.93,-188.02"/>
<polygon fill="black" stroke="black" points="622.78,-185.98 614.3,-179.63 616.97,-189.89 622.78,-185.98"/>
</g>
<!-- node14 -->
<g id="node15" class="node">
<title>node14</title>
<ellipse fill="none" stroke="black" cx="697.13" cy="-162" rx="27" ry="18"/>
<text text-anchor="middle" x="697.13" y="-158.3" font-family="Times,serif" font-size="14.00">)</text>
</g>
<!-- node9&#45;&gt;node14 -->
<g id="edge14" class="edge">
<title>node9&#45;&gt;node14</title>
<path fill="none" stroke="black" d="M661.03,-216.76C666.93,-207.98 674.33,-196.96 680.89,-187.19"/>
<polygon fill="black" stroke="black" points="683.95,-188.92 686.61,-178.67 678.13,-185.02 683.95,-188.92"/>
</g>
<!-- node12 -->
<g id="node13" class="node">
<title>node12</title>
<ellipse fill="none" stroke="black" cx="608.13" cy="-90" rx="31.7" ry="18"/>
<text text-anchor="middle" x="608.13" y="-86.3" font-family="Times,serif" font-size="14.00">expr</text>
</g>
<!-- node11&#45;&gt;node12 -->
<g id="edge12" class="edge">
<title>node11&#45;&gt;node12</title>
<path fill="none" stroke="black" d="M604.37,-143.7C604.92,-135.98 605.58,-126.71 606.2,-118.11"/>
<polygon fill="black" stroke="black" points="609.69,-118.33 606.91,-108.1 602.71,-117.83 609.69,-118.33"/>
</g>
<!-- node13 -->
<g id="node14" class="node">
<title>node13</title>
<ellipse fill="none" stroke="black" cx="613.13" cy="-18" rx="191.17" ry="18"/>
<text text-anchor="middle" x="613.13" y="-14.3" font-family="Times,serif" font-size="14.00">&quot;Declaración explícita con tipo y valor&quot;</text>
</g>
<!-- node12&#45;&gt;node13 -->
<g id="edge13" class="edge">
<title>node12&#45;&gt;node13</title>
<path fill="none" stroke="black" d="M609.37,-71.7C609.92,-63.98 610.58,-54.71 611.2,-46.11"/>
<polygon fill="black" stroke="black" points="614.69,-46.33 611.91,-36.1 607.71,-45.83 614.69,-46.33"/>
</g>
<!-- node16 -->
<g id="node17" class="node">
<title>node16</title>
<ellipse fill="none" stroke="black" cx="975.13" cy="-234" rx="40.89" ry="18"/>
<text text-anchor="middle" x="975.13" y="-230.3" font-family="Times,serif" font-size="14.00">varDcl</text>
</g>
<!-- node15&#45;&gt;node16 -->
<g id="edge16" class="edge">
<title>node15&#45;&gt;node16</title>
<path fill="none" stroke="black" d="M1021.33,-289.81C1013.74,-280.8 1003.94,-269.18 995.32,-258.95"/>
<polygon fill="black" stroke="black" points="997.85,-256.52 988.73,-251.13 992.5,-261.04 997.85,-256.52"/>
</g>
<!-- node17 -->
<g id="node18" class="node">
<title>node17</title>
<ellipse fill="none" stroke="black" cx="769.13" cy="-162" rx="27" ry="18"/>
<text text-anchor="middle" x="769.13" y="-158.3" font-family="Times,serif" font-size="14.00">var</text>
</g>
<!-- node16&#45;&gt;node17 -->
<g id="edge17" class="edge">
<title>node16&#45;&gt;node17</title>
<path fill="none" stroke="black" d="M941.11,-223.9C906.45,-214.28 851.36,-198.02 805.13,-180 803.3,-179.28 801.42,-178.52 799.54,-177.72"/>
<polygon fill="black" stroke="black" points="800.8,-174.45 790.24,-173.57 797.94,-180.84 800.8,-174.45"/>
</g>
<!-- node18 -->
<g id="node19" class="node">
<title>node18</title>
<ellipse fill="none" stroke="black" cx="855.13" cy="-162" rx="40.89" ry="18"/>
<text text-anchor="middle" x="855.13" y="-158.3" font-family="Times,serif" font-size="14.00">entero</text>
</g>
<!-- node16&#45;&gt;node18 -->
<g id="edge18" class="edge">
<title>node16&#45;&gt;node18</title>
<path fill="none" stroke="black" d="M951.42,-219.17C933.18,-208.53 907.77,-193.7 887.63,-181.96"/>
<polygon fill="black" stroke="black" points="889.19,-178.82 878.79,-176.8 885.67,-184.86 889.19,-178.82"/>
</g>
<!-- node19 -->
<g id="node20" class="node">
<title>node19</title>
<ellipse fill="none" stroke="black" cx="945.13" cy="-162" rx="31.4" ry="18"/>
<text text-anchor="middle" x="945.13" y="-158.3" font-family="Times,serif" font-size="14.00">type</text>
</g>
<!-- node16&#45;&gt;node19 -->
<g id="edge19" class="edge">
<title>node16&#45;&gt;node19</title>
<path fill="none" stroke="black" d="M967.87,-216.05C964.41,-207.97 960.18,-198.12 956.32,-189.11"/>
<polygon fill="black" stroke="black" points="959.48,-187.6 952.33,-179.79 953.05,-190.36 959.48,-187.6"/>
</g>
<!-- node21 -->
<g id="node22" class="node">
<title>node21</title>
<ellipse fill="none" stroke="black" cx="1021.13" cy="-162" rx="27" ry="18"/>
<text text-anchor="middle" x="1021.13" y="-158.3" font-family="Times,serif" font-size="14.00">=</text>
</g>
<!-- node16&#45;&gt;node21 -->
<g id="edge21" class="edge">
<title>node16&#45;&gt;node21</title>
<path fill="none" stroke="black" d="M986.03,-216.41C991.73,-207.74 998.81,-196.97 1005.11,-187.38"/>
<polygon fill="black" stroke="black" points="1008.06,-189.27 1010.63,-178.99 1002.21,-185.42 1008.06,-189.27"/>
</g>
<!-- node22 -->
<g id="node23" class="node">
<title>node22</title>
<ellipse fill="none" stroke="black" cx="1098.13" cy="-162" rx="31.7" ry="18"/>
<text text-anchor="middle" x="1098.13" y="-158.3" font-family="Times,serif" font-size="14.00">expr</text>
</g>
<!-- node16&#45;&gt;node22 -->
<g id="edge22" class="edge">
<title>node16&#45;&gt;node22</title>
<path fill="none" stroke="black" d="M999.14,-219.34C1018.63,-208.25 1046.24,-192.53 1067.35,-180.52"/>
<polygon fill="black" stroke="black" points="1069.29,-183.44 1076.25,-175.45 1065.83,-177.36 1069.29,-183.44"/>
</g>
<!-- node20 -->
<g id="node21" class="node">
<title>node20</title>
<ellipse fill="none" stroke="black" cx="945.13" cy="-90" rx="27" ry="18"/>
<text text-anchor="middle" x="945.13" y="-86.3" font-family="Times,serif" font-size="14.00">int</text>
</g>
<!-- node19&#45;&gt;node20 -->
<g id="edge20" class="edge">
<title>node19&#45;&gt;node20</title>
<path fill="none" stroke="black" d="M945.13,-143.7C945.13,-135.98 945.13,-126.71 945.13,-118.11"/>
<polygon fill="black" stroke="black" points="948.63,-118.1 945.13,-108.1 941.63,-118.1 948.63,-118.1"/>
</g>
<!-- node23 -->
<g id="node24" class="node">
<title>node23</title>
<ellipse fill="none" stroke="black" cx="1098.13" cy="-90" rx="27" ry="18"/>
<text text-anchor="middle" x="1098.13" y="-86.3" font-family="Times,serif" font-size="14.00">42</text>
</g>
<!-- node22&#45;&gt;node23 -->
<g id="edge23" class="edge">
<title>node22&#45;&gt;node23</title>
<path fill="none" stroke="black" d="M1098.13,-143.7C1098.13,-135.98 1098.13,-126.71 1098.13,-118.11"/>
<polygon fill="black" stroke="black" points="1101.63,-118.1 1098.13,-108.1 1094.63,-118.1 1101.63,-118.1"/>
</g>
<!-- node25 -->
<g id="node26" class="node">
<title>node25</title>
<ellipse fill="none" stroke="black" cx="1296.13" cy="-234" rx="40.89" ry="18"/>
<text text-anchor="middle" x="1296.13" y="-230.3" font-family="Times,serif" font-size="14.00">varDcl</text>
</g>
<!-- node24&#45;&gt;node25 -->
<g id="edge25" class="edge">
<title>node24&#45;&gt;node25</title>
<path fill="none" stroke="black" d="M1238.7,-290.83C1248.45,-281.36 1261.5,-268.67 1272.69,-257.79"/>
<polygon fill="black" stroke="black" points="1275.35,-260.09 1280.08,-250.61 1270.47,-255.07 1275.35,-260.09"/>
</g>
<!-- node26 -->
<g id="node27" class="node">
<title>node26</title>
<ellipse fill="none" stroke="black" cx="1175.13" cy="-162" rx="27" ry="18"/>
<text text-anchor="middle" x="1175.13" y="-158.3" font-family="Times,serif" font-size="14.00">var</text>
</g>
<!-- node25&#45;&gt;node26 -->
<g id="edge26" class="edge">
<title>node25&#45;&gt;node26</title>
<path fill="none" stroke="black" d="M1272.23,-219.17C1252.55,-207.79 1224.6,-191.62 1203.73,-179.55"/>
<polygon fill="black" stroke="black" points="1205.39,-176.46 1194.99,-174.49 1201.89,-182.52 1205.39,-176.46"/>
</g>
<!-- node27 -->
<g id="node28" class="node">
<title>node27</title>
<ellipse fill="none" stroke="black" cx="1254.13" cy="-162" rx="34.39" ry="18"/>
<text text-anchor="middle" x="1254.13" y="-158.3" font-family="Times,serif" font-size="14.00">texto</text>
</g>
<!-- node25&#45;&gt;node27 -->
<g id="edge27" class="edge">
<title>node25&#45;&gt;node27</title>
<path fill="none" stroke="black" d="M1286.18,-216.41C1281.1,-207.95 1274.83,-197.49 1269.18,-188.08"/>
<polygon fill="black" stroke="black" points="1272.16,-186.24 1264.01,-179.47 1266.16,-189.85 1272.16,-186.24"/>
</g>
<!-- node28 -->
<g id="node29" class="node">
<title>node28</title>
<ellipse fill="none" stroke="black" cx="1338.13" cy="-162" rx="31.4" ry="18"/>
<text text-anchor="middle" x="1338.13" y="-158.3" font-family="Times,serif" font-size="14.00">type</text>
</g>
<!-- node25&#45;&gt;node28 -->
<g id="edge28" class="edge">
<title>node25&#45;&gt;node28</title>
<path fill="none" stroke="black" d="M1306.09,-216.41C1311.16,-207.95 1317.44,-197.49 1323.09,-188.08"/>
<polygon fill="black" stroke="black" points="1326.11,-189.85 1328.25,-179.47 1320.1,-186.24 1326.11,-189.85"/>
</g>
<!-- node30 -->
<g id="node31" class="node">
<title>node30</title>
<ellipse fill="none" stroke="black" cx="1414.13" cy="-162" rx="27" ry="18"/>
<text text-anchor="middle" x="1414.13" y="-158.3" font-family="Times,serif" font-size="14.00">=</text>
</g>
<!-- node25&#45;&gt;node30 -->
<g id="edge30" class="edge">
<title>node25&#45;&gt;node30</title>
<path fill="none" stroke="black" d="M1319.45,-219.17C1338.43,-207.91 1365.32,-191.96 1385.59,-179.93"/>
<polygon fill="black" stroke="black" points="1387.58,-182.82 1394.39,-174.71 1384.01,-176.8 1387.58,-182.82"/>
</g>
<!-- node31 -->
<g id="node32" class="node">
<title>node31</title>
<ellipse fill="none" stroke="black" cx="1491.13" cy="-162" rx="31.7" ry="18"/>
<text text-anchor="middle" x="1491.13" y="-158.3" font-family="Times,serif" font-size="14.00">expr</text>
</g>
<!-- node25&#45;&gt;node31 -->
<g id="edge31" class="edge">
<title>node25&#45;&gt;node31</title>
<path fill="none" stroke="black" d="M1328.19,-222.61C1359.49,-212.31 1408.36,-195.83 1450.13,-180 1452.38,-179.15 1454.69,-178.25 1457.02,-177.33"/>
<polygon fill="black" stroke="black" points="1458.55,-180.49 1466.51,-173.5 1455.93,-173.99 1458.55,-180.49"/>
</g>
<!-- node29 -->
<g id="node30" class="node">
<title>node29</title>
<ellipse fill="none" stroke="black" cx="1338.13" cy="-90" rx="38.19" ry="18"/>
<text text-anchor="middle" x="1338.13" y="-86.3" font-family="Times,serif" font-size="14.00">string</text>
</g>
<!-- node28&#45;&gt;node29 -->
<g id="edge29" class="edge">
<title>node28&#45;&gt;node29</title>
<path fill="none" stroke="black" d="M1338.13,-143.7C1338.13,-135.98 1338.13,-126.71 1338.13,-118.11"/>
<polygon fill="black" stroke="black" points="1341.63,-118.1 1338.13,-108.1 1334.63,-118.1 1341.63,-118.1"/>
</g>
<!-- node32 -->
<g id="node33" class="node">
<title>node32</title>
<ellipse fill="none" stroke="black" cx="1491.13" cy="-90" rx="82.59" ry="18"/>
<text text-anchor="middle" x="1491.13" y="-86.3" font-family="Times,serif" font-size="14.00">&quot;Hola, mundo!&quot;</text>
</g>
<!-- node31&#45;&gt;node32 -->
<g id="edge32" class="edge">
<title>node31&#45;&gt;node32</title>
<path fill="none" stroke="black" d="M1491.13,-143.7C1491.13,-135.98 1491.13,-126.71 1491.13,-118.11"/>
<polygon fill="black" stroke="black" points="1494.63,-118.1 1491.13,-108.1 1487.63,-118.1 1494.63,-118.1"/>
</g>
<!-- node34 -->
<g id="node35" class="node">
<title>node34</title>
<ellipse fill="none" stroke="black" cx="1672.13" cy="-234" rx="32.49" ry="18"/>
<text text-anchor="middle" x="1672.13" y="-230.3" font-family="Times,serif" font-size="14.00">stmt</text>
</g>
<!-- node33&#45;&gt;node34 -->
<g id="edge34" class="edge">
<title>node33&#45;&gt;node34</title>
<path fill="none" stroke="black" d="M1517.91,-295.99C1548.04,-284.08 1601.44,-262.96 1636.82,-248.97"/>
<polygon fill="black" stroke="black" points="1638.27,-252.15 1646.29,-245.22 1635.7,-245.64 1638.27,-252.15"/>
</g>
<!-- node35 -->
<g id="node36" class="node">
<title>node35</title>
<ellipse fill="none" stroke="black" cx="1606.13" cy="-162" rx="65.79" ry="18"/>
<text text-anchor="middle" x="1606.13" y="-158.3" font-family="Times,serif" font-size="14.00">fmt.Println(</text>
</g>
<!-- node34&#45;&gt;node35 -->
<g id="edge35" class="edge">
<title>node34&#45;&gt;node35</title>
<path fill="none" stroke="black" d="M1657.81,-217.81C1649.35,-208.84 1638.45,-197.28 1628.84,-187.09"/>
<polygon fill="black" stroke="black" points="1631.22,-184.5 1621.81,-179.63 1626.12,-189.3 1631.22,-184.5"/>
</g>
<!-- node36 -->
<g id="node37" class="node">
<title>node36</title>
<ellipse fill="none" stroke="black" cx="1739.13" cy="-162" rx="49.29" ry="18"/>
<text text-anchor="middle" x="1739.13" y="-158.3" font-family="Times,serif" font-size="14.00">exprList</text>
</g>
<!-- node34&#45;&gt;node36 -->
<g id="edge36" class="edge">
<title>node34&#45;&gt;node36</title>
<path fill="none" stroke="black" d="M1686.67,-217.81C1695.38,-208.71 1706.64,-196.95 1716.49,-186.65"/>
<polygon fill="black" stroke="black" points="1719.3,-188.78 1723.69,-179.13 1714.25,-183.94 1719.3,-188.78"/>
</g>
<!-- node39 -->
<g id="node40" class="node">
<title>node39</title>
<ellipse fill="none" stroke="black" cx="1833.13" cy="-162" rx="27" ry="18"/>
<text text-anchor="middle" x="1833.13" y="-158.3" font-family="Times,serif" font-size="14.00">)</text>
</g>
<!-- node34&#45;&gt;node39 -->
<g id="edge39" class="edge">
<title>node34&#45;&gt;node39</title>
<path fill="none" stroke="black" d="M1697.64,-222.54C1722.99,-212.05 1762.93,-195.32 1797.13,-180 1798.93,-179.19 1800.77,-178.36 1802.63,-177.51"/>
<polygon fill="black" stroke="black" points="1804.28,-180.6 1811.88,-173.21 1801.33,-174.25 1804.28,-180.6"/>
</g>
<!-- node37 -->
<g id="node38" class="node">
<title>node37</title>
<ellipse fill="none" stroke="black" cx="1739.13" cy="-90" rx="31.7" ry="18"/>
<text text-anchor="middle" x="1739.13" y="-86.3" font-family="Times,serif" font-size="14.00">expr</text>
</g>
<!-- node36&#45;&gt;node37 -->
<g id="edge37" class="edge">
<title>node36&#45;&gt;node37</title>
<path fill="none" stroke="black" d="M1739.13,-143.7C1739.13,-135.98 1739.13,-126.71 1739.13,-118.11"/>
<polygon fill="black" stroke="black" points="1742.63,-118.1 1739.13,-108.1 1735.63,-118.1 1742.63,-118.1"/>
</g>
<!-- node38 -->
<g id="node39" class="node">
<title>node38</title>
<ellipse fill="none" stroke="black" cx="1739.13" cy="-18" rx="40.89" ry="18"/>
<text text-anchor="middle" x="1739.13" y="-14.3" font-family="Times,serif" font-size="14.00">entero</text>
</g>
<!-- node37&#45;&gt;node38 -->
<g id="edge38" class="edge">
<title>node37&#45;&gt;node38</title>
<path fill="none" stroke="black" d="M1739.13,-71.7C1739.13,-63.98 1739.13,-54.71 1739.13,-46.11"/>
<polygon fill="black" stroke="black" points="1742.63,-46.1 1739.13,-36.1 1735.63,-46.1 1742.63,-46.1"/>
</g>
<!-- node41 -->
<g id="node42" class="node">
<title>node41</title>
<ellipse fill="none" stroke="black" cx="2010.13" cy="-234" rx="32.49" ry="18"/>
<text text-anchor="middle" x="2010.13" y="-230.3" font-family="Times,serif" font-size="14.00">stmt</text>
</g>
<!-- node40&#45;&gt;node41 -->
<g id="edge41" class="edge">
<title>node40&#45;&gt;node41</title>
<path fill="none" stroke="black" d="M1823.81,-297.11C1860.24,-284.97 1930.29,-261.61 1973.36,-247.26"/>
<polygon fill="black" stroke="black" points="1974.52,-250.56 1982.9,-244.08 1972.3,-243.92 1974.52,-250.56"/>
</g>
<!-- node42 -->
<g id="node43" class="node">
<title>node42</title>
<ellipse fill="none" stroke="black" cx="1944.13" cy="-162" rx="65.79" ry="18"/>
<text text-anchor="middle" x="1944.13" y="-158.3" font-family="Times,serif" font-size="14.00">fmt.Println(</text>
</g>
<!-- node41&#45;&gt;node42 -->
<g id="edge42" class="edge">
<title>node41&#45;&gt;node42</title>
<path fill="none" stroke="black" d="M1995.81,-217.81C1987.35,-208.84 1976.45,-197.28 1966.84,-187.09"/>
<polygon fill="black" stroke="black" points="1969.22,-184.5 1959.81,-179.63 1964.12,-189.3 1969.22,-184.5"/>
</g>
<!-- node43 -->
<g id="node44" class="node">
<title>node43</title>
<ellipse fill="none" stroke="black" cx="2077.13" cy="-162" rx="49.29" ry="18"/>
<text text-anchor="middle" x="2077.13" y="-158.3" font-family="Times,serif" font-size="14.00">exprList</text>
</g>
<!-- node41&#45;&gt;node43 -->
<g id="edge43" class="edge">
<title>node41&#45;&gt;node43</title>
<path fill="none" stroke="black" d="M2024.67,-217.81C2033.38,-208.71 2044.64,-196.95 2054.49,-186.65"/>
<polygon fill="black" stroke="black" points="2057.3,-188.78 2061.69,-179.13 2052.25,-183.94 2057.3,-188.78"/>
</g>
<!-- node46 -->
<g id="node47" class="node">
<title>node46</title>
<ellipse fill="none" stroke="black" cx="2171.13" cy="-162" rx="27" ry="18"/>
<text text-anchor="middle" x="2171.13" y="-158.3" font-family="Times,serif" font-size="14.00">)</text>
</g>
<!-- node41&#45;&gt;node46 -->
<g id="edge46" class="edge">
<title>node41&#45;&gt;node46</title>
<path fill="none" stroke="black" d="M2035.64,-222.54C2060.99,-212.05 2100.93,-195.32 2135.13,-180 2136.93,-179.19 2138.77,-178.36 2140.63,-177.51"/>
<polygon fill="black" stroke="black" points="2142.28,-180.6 2149.88,-173.21 2139.33,-174.25 2142.28,-180.6"/>
</g>
<!-- node44 -->
<g id="node45" class="node">
<title>node44</title>
<ellipse fill="none" stroke="black" cx="2077.13" cy="-90" rx="31.7" ry="18"/>
<text text-anchor="middle" x="2077.13" y="-86.3" font-family="Times,serif" font-size="14.00">expr</text>
</g>
<!-- node43&#45;&gt;node44 -->
<g id="edge44" class="edge">
<title>node43&#45;&gt;node44</title>
<path fill="none" stroke="black" d="M2077.13,-143.7C2077.13,-135.98 2077.13,-126.71 2077.13,-118.11"/>
<polygon fill="black" stroke="black" points="2080.63,-118.1 2077.13,-108.1 2073.63,-118.1 2080.63,-118.1"/>
</g>
<!-- node45 -->
<g id="node46" class="node">
<title>node45</title>
<ellipse fill="none" stroke="black" cx="2077.13" cy="-18" rx="34.39" ry="18"/>
<text text-anchor="middle" x="2077.13" y="-14.3" font-family="Times,serif" font-size="14.00">texto</text>
</g>
<!-- node44&#45;&gt;node45 -->
<g id="edge45" class="edge">
<title>node44&#45;&gt;node45</title>
<path fill="none" stroke="black" d="M2077.13,-71.7C2077.13,-63.98 2077.13,-54.71 2077.13,-46.11"/>
<polygon fill="black" stroke="black" points="2080.63,-46.1 2077.13,-36.1 2073.63,-46.1 2080.63,-46.1"/>
</g>
</g>
</svg>
